<svg width="14151" height="3133" viewBox="0 0 14151 3133" fill="none" xmlns="http://www.w3.org/2000/svg">
<g filter="url(#filter0_i)">
<path fill-rule="evenodd" clip-rule="evenodd" d="M5328.4 1683.17C5304.35 1683.17 5284.66 1663.5 5284.66 1639.45V1510.48V1381.51C5284.66 1357.47 5304.35 1337.79 5328.4 1337.79H5619.26H5910.12C5934.18 1337.79 5953.86 1357.47 5953.86 1381.51V1510.48V1639.45C5953.86 1663.5 5934.18 1683.17 5910.12 1683.17H5619.26H5328.4ZM4431.77 2972.88C4431.77 2996.92 4451.45 3016.59 4475.5 3016.59H5330.59H6185.67C6209.73 3016.59 6229.41 2996.92 6229.41 2972.88V2843.91V2714.93C6229.41 2690.89 6209.73 2671.22 6185.67 2671.22H5501.17H4816.66C4792.61 2671.22 4772.92 2651.54 4772.92 2627.5V1508.3V389.097C4772.92 365.051 4792.61 345.378 4816.66 345.378H5501.17H6185.67C6209.73 345.378 6229.41 325.704 6229.41 301.659V172.689V43.7188C6229.41 19.6734 6209.73 0 6185.67 0H5330.59H4475.5C4451.45 0 4431.77 19.6734 4431.77 43.7188V1503.93V2972.88ZM3097.71 1650.4C3097.71 1674.44 3117.39 1694.11 3141.45 1694.11H3432.31H3723.17C3747.23 1694.11 3766.91 1674.44 3766.91 1650.4V1521.43V1392.45C3766.91 1368.41 3747.23 1348.74 3723.17 1348.74H3432.31H3141.45C3117.39 1348.74 3097.71 1368.41 3097.71 1392.45V1521.43V1650.4ZM2288.55 3027.54C2264.49 3027.54 2244.81 3007.86 2244.81 2983.82V1523.61V63.4043C2244.81 39.359 2264.49 19.6855 2288.55 19.6855H3143.64H3998.72C4022.78 19.6855 4042.46 39.359 4042.46 63.4043V183.631V312.601C4042.46 336.646 4022.78 356.32 3998.72 356.32H3314.22H2629.71C2605.65 356.32 2585.97 375.993 2585.97 400.039V1519.24V2638.44C2585.97 2662.48 2605.65 2682.16 2629.71 2682.16H3314.22H3998.72C4022.78 2682.16 4042.46 2701.83 4042.46 2725.88V2854.85V2983.82C4042.46 3007.86 4022.78 3027.54 3998.72 3027.54H3143.64H2288.55ZM1761.54 2284.33C1768.1 2133.5 1730.92 1980.48 1652.19 1844.95C1582.21 1724.73 1485.99 1635.1 1374.45 1560.78C1271.44 1489.33 1160.34 1436.07 1054.76 1385.45L1054.75 1385.45L1054.75 1385.44C1050.51 1383.41 1046.27 1381.38 1042.04 1379.35L1031.11 1374.98L1020.17 1370.61C902.079 1313.77 779.611 1248.19 676.826 1169.5C574.041 1090.81 490.938 996.81 451.574 885.328C420.957 795.704 420.957 708.267 447.2 627.387C475.63 548.693 528.116 476.557 606.845 426.281C711.817 356.331 845.219 336.657 987.369 362.888C1118.58 386.934 1258.55 452.512 1389.76 553.065C1409.44 568.366 1435.69 563.995 1448.81 546.507L1520.98 450.326L1593.14 351.959C1608.45 334.471 1604.08 308.24 1586.58 295.124C1398.51 153.038 1195.13 65.6008 1000.49 37.1836C794.92 8.76644 595.91 45.9273 431.891 155.224C291.929 247.034 193.517 378.19 143.218 526.834C95.1061 675.477 95.1061 839.422 151.966 998.996C213.2 1167.31 322.546 1298.47 453.761 1405.58C584.976 1512.69 738.06 1595.76 886.77 1665.71L897.705 1670.08L908.64 1674.45C1000.49 1718.17 1094.53 1764.07 1177.63 1816.54C1258.55 1871.19 1328.53 1932.39 1374.45 2008.9C1420.38 2087.59 1442.25 2177.22 1440.06 2264.65C1437.87 2352.09 1411.63 2435.16 1361.33 2502.92C1332.9 2540.08 1297.91 2572.87 1256.36 2601.29C1221.37 2623.15 1186.38 2642.82 1147.01 2658.12C1131.7 2664.68 1120.77 2679.98 1120.77 2697.47V2839.56V2957.6C1120.77 2983.83 1147.01 3003.5 1173.26 2996.94C1256.36 2975.08 1332.9 2942.3 1402.88 2898.58C1485.99 2846.11 1560.34 2778.35 1619.39 2699.66C1706.86 2579.43 1754.98 2435.16 1761.54 2284.33ZM143.218 2417.67C156.34 2398 182.583 2393.62 202.265 2408.93C276.62 2465.76 348.789 2516.04 416.583 2553.2C488.751 2594.73 560.92 2627.52 630.901 2651.57C648.396 2658.12 659.331 2673.42 659.331 2690.91V2828.63V2944.48C659.331 2970.71 633.088 2990.39 606.845 2983.83C512.807 2957.6 418.77 2920.44 324.732 2872.34C224.134 2819.88 121.349 2754.3 16.3771 2675.61C-1.11825 2662.49 -5.49208 2636.26 7.62943 2618.78L77.6108 2516.04L143.218 2417.67ZM8683.16 281.996C8869.04 448.127 8982.76 679.836 8982.76 933.405C8982.76 1130.14 8912.78 1313.76 8796.88 1466.77C8689.72 1604.49 8538.82 1713.78 8366.05 1781.55C8339.81 1792.48 8328.88 1818.71 8342 1840.57L8676.6 2408.91L8998.07 2955.4C9015.57 2983.81 8991.51 3018.79 8956.52 3018.79H8820.93H8635.04C8617.55 3018.79 8602.24 3010.05 8593.49 2996.93L8265.46 2439.52L7937.42 1882.1C7928.67 1868.99 7913.36 1860.24 7895.87 1860.24H7753.72H7631.25C7605.01 1860.24 7583.14 1840.57 7583.14 1816.52V1687.55V1558.58C7583.14 1534.54 7605.01 1514.86 7631.25 1514.86H7773.4H7963.66C8140.8 1514.86 8302.63 1449.29 8418.54 1344.36C8534.45 1239.44 8606.61 1092.98 8606.61 933.405C8606.61 773.831 8534.45 627.374 8418.54 522.449C8302.63 417.524 8140.8 351.945 7963.66 351.945H7491.29H7064.84C7038.6 351.945 7016.73 371.619 7016.73 395.664V1685.37V2975.07C7016.73 2999.12 6994.86 3018.79 6968.61 3018.79H6826.46H6684.31C6658.07 3018.79 6636.2 2999.12 6636.2 2975.07V1514.86V54.6582C6636.2 30.6129 6658.07 10.9395 6684.31 10.9395H7298.84H7961.47C8243.59 10.9395 8497.27 115.864 8683.16 281.996Z" fill="url(#paint0_linear)"/>
<path d="M9406.98 2988.21C9406.98 3012.26 9424.47 3029.74 9444.15 3029.74H9553.5H9662.85C9682.53 3029.74 9700.02 3010.07 9700.02 2988.21V1565.16V142.119C9700.02 118.074 9682.53 100.586 9662.85 100.586H9553.5H9444.15C9424.47 100.586 9406.98 120.26 9406.98 142.119V1565.16V2988.21Z" fill="#121212"/>
<path d="M11760.1 1853.71C11838.8 1989.24 11876 2142.25 11869.4 2293.08C11862.9 2443.91 11814.8 2588.19 11727.3 2708.41C11668.2 2787.11 11593.9 2854.87 11510.8 2907.33C11440.8 2951.05 11364.3 2983.84 11281.1 3005.7C11254.9 3012.26 11228.7 2992.58 11228.7 2966.35V2848.31V2708.41C11228.7 2690.92 11239.6 2675.62 11254.9 2669.07C11294.3 2653.76 11329.3 2634.09 11364.3 2612.23C11405.8 2583.81 11440.8 2551.02 11469.2 2513.86C11519.5 2446.1 11545.8 2363.03 11548 2275.6C11550.1 2188.16 11528.3 2098.54 11482.3 2019.84C11436.4 1943.33 11366.4 1882.13 11285.5 1827.48C11202.4 1775.02 11108.4 1729.11 11016.5 1685.39L11005.6 1681.02L10994.7 1676.65C10846 1606.7 10692.9 1523.63 10561.7 1416.52C10430.4 1309.41 10321.1 1178.26 10259.9 1009.94C10203 850.364 10203 686.419 10251.1 537.775C10301.4 389.131 10399.8 257.975 10539.8 166.166C10703.8 56.8687 10902.8 19.7078 11108.4 48.125C11303 76.5422 11506.4 163.98 11694.5 306.066C11712 319.181 11716.3 345.413 11701 362.9L11628.9 461.267L11556.7 557.449C11543.6 574.936 11517.3 579.308 11497.7 564.006C11366.4 463.453 11226.5 397.875 11095.3 373.83C10953.1 347.599 10819.7 367.272 10714.7 437.222C10636 487.499 10583.5 559.635 10555.1 638.328C10528.8 719.208 10528.8 806.646 10559.5 896.269C10598.8 1007.75 10681.9 1101.75 10784.7 1180.44C10887.5 1259.14 11010 1324.71 11128.1 1381.55L11139 1385.92L11149.9 1390.29C11259.3 1442.75 11375.2 1497.4 11482.3 1571.72C11593.9 1646.05 11690.1 1735.67 11760.1 1853.71ZM10312.3 2419.87C10292.7 2404.57 10266.4 2408.94 10253.3 2428.61L10187.7 2526.98L10117.7 2629.72C10104.6 2647.21 10109 2673.44 10126.5 2686.55C10231.4 2765.25 10334.2 2830.82 10434.8 2883.29C10528.8 2931.38 10622.9 2968.54 10716.9 2994.77C10743.2 3001.33 10769.4 2981.65 10769.4 2955.42V2839.57V2701.85C10769.4 2684.37 10758.5 2669.07 10741 2662.51C10671 2638.46 10598.8 2605.67 10526.7 2564.14C10456.7 2526.98 10384.5 2476.7 10312.3 2419.87Z" fill="#121212"/>
<path d="M12952 990.238C12952 966.192 12971.7 946.519 12995.7 946.519H13129.1H13262.5C13286.6 946.519 13306.3 966.192 13306.3 990.238V2039.49V3088.74C13306.3 3112.78 13286.6 3132.46 13262.5 3132.46H13126.9H12995.7C12971.7 3132.46 12952 3112.78 12952 3088.74V2039.49V990.238ZM14106.7 469.985C14130.7 469.985 14150.4 450.311 14150.4 426.266V297.296V172.697C14150.4 148.652 14130.7 128.979 14106.7 128.979H13126.9H12147.2C12123.2 128.979 12103.5 148.652 12103.5 172.697V301.667V430.638C12103.5 454.683 12123.2 474.357 12147.2 474.357H13126.9H14106.7V469.985Z" fill="#121212"/>
</g>
<defs>
<filter id="filter0_i" x="0" y="0" width="14170.4" height="3152.46" filterUnits="userSpaceOnUse" color-interpolation-filters="sRGB">
<feFlood flood-opacity="0" result="BackgroundImageFix"/>
<feBlend mode="normal" in="SourceGraphic" in2="BackgroundImageFix" result="shape"/>
<feColorMatrix in="SourceAlpha" type="matrix" values="0 0 0 0 0 0 0 0 0 0 0 0 0 0 0 0 0 0 127 0" result="hardAlpha"/>
<feOffset dx="20" dy="20"/>
<feGaussianBlur stdDeviation="20.5"/>
<feComposite in2="hardAlpha" operator="arithmetic" k2="-1" k3="1"/>
<feColorMatrix type="matrix" values="0 0 0 0 0 0 0 0 0 0 0 0 0 0 0 0 0 0 0.85 0"/>
<feBlend mode="normal" in2="shape" result="effect1_innerShadow"/>
</filter>
<linearGradient id="paint0_linear" x1="9549" y1="1514" x2="-1641.64" y2="1190.37" gradientUnits="userSpaceOnUse">
<stop stop-color="#1C175B"/>
<stop offset="0.296875" stop-color="#352C9C"/>
<stop offset="0.557292" stop-color="#502691"/>
<stop offset="0.734375" stop-color="#592B9E"/>
<stop offset="1" stop-color="#90189C"/>
</linearGradient>
</defs>
</svg>
